<svg width="1136" height="1018" viewBox="0 0 1136 1018" fill="none" xmlns="http://www.w3.org/2000/svg">
<g clip-path="url(#clip0_164_448)">
<path d="M75.2985 935.25L568.5 81L1061.7 935.25H75.2985Z" stroke="black" stroke-width="8"/>
<circle cx="568" cy="650" r="278" stroke="black" stroke-width="8"/>
<path fill-rule="evenodd" clip-rule="evenodd" d="M565.999 932V655.724L72.9989 939L70.5078 934.665L562.715 651.844L320.999 492L323.757 487.829L565.999 648.022V80H570.999V648.65L802.999 492L805.797 496.144L574.282 652.466L1058 931L1055.5 935.333L570.999 656.346V932H565.999Z" fill="black"/>
<circle cx="1058" cy="920" r="67" fill="#12B8EC" stroke="black" stroke-width="8"/>
<circle cx="78" cy="939" r="67" fill="#21F2C0" stroke="black" stroke-width="8"/>
<g style="mix-blend-mode:multiply" opacity="0.7">
<circle cx="569" cy="650" r="67" fill="black"/>
<circle cx="569" cy="650" r="67" stroke="black" stroke-width="8"/>
</g>
<circle cx="567" cy="80" r="67" fill="#48B8C8" stroke="black" stroke-width="8"/>
<circle cx="321" cy="492" r="67" fill="#E13B3B" stroke="black" stroke-width="8"/>
<circle cx="803" cy="492" r="67" fill="#E29726" stroke="black" stroke-width="8"/>
<circle cx="569" cy="932" r="67" fill="#CF5AEC" stroke="black" stroke-width="8"/>
</g>
<defs>
<clipPath id="clip0_164_448">
<rect width="1136" height="1018" fill="white"/>
</clipPath>
</defs>
</svg>
